<?xml version="1.0" encoding="iso-8859-1"?>
<!-- Generator: Adobe Illustrator 19.0.0, SVG Export Plug-In . SVG Version: 6.00 Build 0)  -->
<svg version="1.1" id="Layer_1" xmlns="http://www.w3.org/2000/svg" xmlns:xlink="http://www.w3.org/1999/xlink" x="0px" y="0px"
	 viewBox="0 0 511.984 511.984" style="enable-background:new 0 0 511.984 511.984;" xml:space="preserve">
<path style="fill:#FFD2A6;" d="M458.517,275.93c0,46.842-90.686,64.278-202.525,64.278c-111.849,0-202.518-17.437-202.518-64.278
	c0-46.835,70.881-126.348,202.518-126.348S458.517,229.095,458.517,275.93z"/>
<polygon style="fill:#ED5564;" points="405.222,511.984 106.762,511.984 42.81,256.164 255.992,256.164 469.174,256.164 "/>
<g>
	<path style="fill:#DA4453;" d="M300.834,301.929c-4.156-4.156-10.905-4.156-15.062,0c-1.906,1.875-2.922,4.312-3.094,6.781l0,0
		l-10.671,148.901h0.016c-0.219,2.984,0.812,6.031,3.078,8.312c4.172,4.156,10.921,4.156,15.077,0
		c1.875-1.906,2.906-4.312,3.094-6.781l0,0l10.655-148.917l0,0C304.131,307.241,303.115,304.21,300.834,301.929z"/>
	<path style="fill:#DA4453;" d="M375.457,301.929c-4.172-4.156-10.922-4.156-15.094,0c-1.499,1.5-2.452,3.359-2.874,5.297l0,0
		l-31.968,148.916l0,0c-0.734,3.406,0.219,7.125,2.875,9.781c4.156,4.156,10.906,4.156,15.078,0
		c1.515-1.516,2.452-3.375,2.874-5.312h0.016l31.968-148.901l0,0C379.051,308.272,378.113,304.585,375.457,301.929z"/>
	<path style="fill:#DA4453;" d="M186.471,456.361l-31.976-149.136l-0.008,0.016c-0.414-1.953-1.367-3.812-2.875-5.312
		c-4.164-4.156-10.914-4.156-15.078,0c-2.655,2.656-3.608,6.344-2.874,9.766l-0.008,0.016l31.976,149.12h0.008
		c0.414,1.938,1.367,3.781,2.874,5.297c4.164,4.156,10.914,4.156,15.078,0c2.648-2.656,3.609-6.359,2.875-9.766L186.471,456.361
		L186.471,456.361z"/>
	<path style="fill:#DA4453;" d="M239.976,457.611L229.321,308.71h-0.016c-0.172-2.469-1.195-4.906-3.086-6.781
		c-4.156-4.156-10.906-4.156-15.07,0c-2.273,2.281-3.297,5.312-3.086,8.297h-0.008l10.657,148.916h0.008
		c0.18,2.469,1.203,4.875,3.086,6.781c4.164,4.156,10.913,4.156,15.077,0c2.273-2.281,3.297-5.328,3.086-8.312H239.976z"/>
</g>
<path style="fill:#965353;" d="M344.864,62.334C305.271,26.218,258.43,0,233.445,0c-14.741,0-20.858,8.961-21.679,17.344
	c-4.602,47.279-24.796,58.912-50.365,73.646c-28.647,16.507-61.123,35.217-69.975,105.458c-0.891,7.094,1.242,13.797,6.172,19.39
	c13.999,15.875,52.881,23.593,118.863,23.601c0.008,0,0.008,0,0.023,0c39.054,0,85.161-2.93,126.521-8.031
	c65.513-8.094,72.7-15.289,75.419-18c2.469-2.46,3.812-5.625,3.812-8.89C422.159,142.183,373.722,88.677,344.864,62.334z"/>
<g>
	<path style="fill:#7F4545;" d="M373.113,91.505c-0.469,6.648-2.625,26.218-12.531,50.795
		c-7.218,17.921-17.061,34.741-29.248,49.998c-13.5,16.922-29.969,31.968-49.03,44.812c13-0.867,26.062-1.953,38.874-3.258
		c9.828-8.766,18.797-18.195,26.812-28.249c13.483-16.875,24.374-35.491,32.374-55.334c5.359-13.312,8.688-25.367,10.781-35.186
		C385.394,106.598,379.254,98.708,373.113,91.505z"/>
	<path style="fill:#7F4545;" d="M344.864,62.334c-4.593-4.187-9.28-8.242-14.03-12.14c-5.188,14.687-16.812,43.623-36.874,74.669
		c-16.687,25.812-35.866,48.03-57.015,66.037c-24.585,20.93-51.943,36.218-81.411,45.499c13.71,1.648,29.679,2.625,47.975,2.93
		c16.727-8.867,32.632-19.71,47.569-32.468c22.758-19.437,43.335-43.327,61.146-70.998c17.953-27.897,29.391-53.795,35.812-70.592
		C346.958,64.263,345.895,63.279,344.864,62.334z"/>
	<path style="fill:#7F4545;" d="M271.601,11.32c-1.914,11.867-8.133,40.218-26.812,71.076c-14.28,23.601-32.983,44.092-55.6,60.904
		c-26.772,19.897-59.193,34.718-96.442,44.108c-0.484,2.914-0.93,5.921-1.32,9.039c-0.562,4.477,0.078,8.789,1.867,12.773
		c42.21-10.055,78.942-26.617,109.215-49.265c24.875-18.608,45.437-41.319,61.101-67.482c17.038-28.483,24.507-54.709,27.726-70.396
		C284.554,17.984,277.93,14.375,271.601,11.32z"/>
</g>
<path style="fill:#434A54;" d="M160.05,85.622c-4.844,0-9.227-3.328-10.367-8.242c-0.078-0.297-3.18-12.656-13.968-25.546
	c-14.43-17.227-35.304-27.398-62.046-30.226c-5.859-0.616-10.101-5.866-9.484-11.718c0.617-5.859,5.875-10.102,11.726-9.484
	c41.046,4.344,64.498,23.453,76.951,38.718c13.68,16.773,17.437,32.804,17.593,33.476c1.305,5.742-2.289,11.453-8.03,12.757
	C161.628,85.536,160.831,85.622,160.05,85.622z"/>
<path style="fill:#ED5564;" d="M213.352,74.967c0,29.429-23.858,53.295-53.287,53.295c-29.437,0-53.296-23.866-53.296-53.295
	c0-29.437,23.859-53.295,53.296-53.295C189.494,21.671,213.352,45.53,213.352,74.967z"/>
<g>
	<path style="fill:#A0D468;" d="M340.771,128.262c-5.891,0-10.656,4.773-10.656,10.656c0,5.891,4.766,10.664,10.656,10.664
		c5.874,0,10.655-4.773,10.655-10.664C351.427,133.035,346.645,128.262,340.771,128.262z"/>
	<path style="fill:#A0D468;" d="M309.287,21.671c-5.891,0-10.656,4.773-10.656,10.656c0,5.891,4.766,10.656,10.656,10.656
		s10.656-4.766,10.656-10.656C319.943,26.445,315.178,21.671,309.287,21.671z"/>
	<path style="fill:#A0D468;" d="M245.336,42.983c-5.891,0-10.664,4.773-10.664,10.664c0,5.883,4.773,10.656,10.664,10.656
		c5.883,0,10.656-4.773,10.656-10.656C255.992,47.757,251.219,42.983,245.336,42.983z"/>
	<path style="fill:#A0D468;" d="M106.957,128.262c-5.89,0-10.663,4.773-10.663,10.656c0,5.891,4.773,10.656,10.663,10.656
		c5.883,0,10.656-4.765,10.656-10.656C117.613,133.035,112.84,128.262,106.957,128.262z"/>
	<path style="fill:#A0D468;" d="M149.401,138.918c-5.883,0-10.656,4.773-10.656,10.656c0,5.891,4.773,10.664,10.656,10.664
		c5.891,0,10.664-4.773,10.664-10.664C160.065,143.691,155.292,138.918,149.401,138.918z"/>
	<path style="fill:#A0D468;" d="M213.352,96.278c-5.883,0-10.656,4.773-10.656,10.664c0,5.883,4.773,10.656,10.656,10.656
		c5.891,0,10.664-4.773,10.664-10.656C224.016,101.052,219.243,96.278,213.352,96.278z"/>
	<path style="fill:#A0D468;" d="M287.96,85.622c-5.875,0-10.655,4.773-10.655,10.656c0,5.891,4.78,10.664,10.655,10.664
		c5.906,0,10.671-4.773,10.671-10.664C298.631,90.396,293.866,85.622,287.96,85.622z"/>
	<path style="fill:#A0D468;" d="M245.336,149.581c-5.891,0-10.664,4.773-10.664,10.656c0,5.883,4.773,10.656,10.664,10.656
		c5.883,0,10.656-4.773,10.656-10.656C255.992,154.355,251.219,149.581,245.336,149.581z"/>
	<path style="fill:#A0D468;" d="M192.041,181.557c-5.891,0-10.664,4.773-10.664,10.656c0,5.891,4.773,10.656,10.664,10.656
		c5.883,0,10.655-4.766,10.655-10.656C202.696,186.33,197.924,181.557,192.041,181.557z"/>
	<path style="fill:#A0D468;" d="M309.287,170.893c-5.891,0-10.656,4.773-10.656,10.664c0,5.883,4.766,10.656,10.656,10.656
		s10.656-4.773,10.656-10.656C319.943,175.667,315.178,170.893,309.287,170.893z"/>
	<path style="fill:#A0D468;" d="M394.551,170.893c-5.875,0-10.656,4.773-10.656,10.664c0,5.883,4.781,10.656,10.656,10.656
		c5.906,0,10.672-4.773,10.672-10.656C405.222,175.667,400.457,170.893,394.551,170.893z"/>
</g>
<g>
</g>
<g>
</g>
<g>
</g>
<g>
</g>
<g>
</g>
<g>
</g>
<g>
</g>
<g>
</g>
<g>
</g>
<g>
</g>
<g>
</g>
<g>
</g>
<g>
</g>
<g>
</g>
<g>
</g>
</svg>
